<?xml version="1.0" standalone="no"?>
<!DOCTYPE svg PUBLIC "-//W3C//DTD SVG 20010904//EN"
 "http://www.w3.org/TR/2001/REC-SVG-20010904/DTD/svg10.dtd">
<svg version="1.0" xmlns="http://www.w3.org/2000/svg"
 width="700.000000pt" height="700.000000pt" viewBox="0 0 700.000000 700.000000"
 preserveAspectRatio="xMidYMid meet">
<metadata>
Created by potrace 1.11, written by Peter Selinger 2001-2013
</metadata>
<g transform="translate(0.000000,700.000000) scale(0.100000,-0.100000)"
fill="#000000" stroke="none">
<path d="M4463 6843 c-41 -87 -92 -194 -113 -238 -21 -44 -71 -150 -113 -235
-41 -85 -95 -198 -120 -250 -25 -52 -87 -183 -139 -290 -52 -107 -103 -213
-113 -235 -10 -22 -20 -43 -21 -46 -2 -4 71 -6 161 -5 139 1 166 -1 169 -14 2
-8 4 -269 5 -580 l1 -565 -101 -60 c-56 -33 -118 -70 -138 -81 -20 -12 -59
-35 -86 -52 -27 -17 -52 -29 -55 -27 -3 2 -5 312 -4 689 1 621 -1 686 -15 687
-49 3 -1489 4 -1502 1 -15 -3 -16 -68 -16 -688 0 -376 -2 -686 -4 -688 -2 -3
-171 96 -374 218 -204 122 -379 228 -390 234 -11 7 -117 71 -235 142 l-215
129 -22 -27 c-12 -15 -22 -30 -23 -34 0 -3 -38 -70 -86 -148 -47 -78 -93 -156
-103 -173 -10 -18 -130 -216 -266 -442 -136 -225 -258 -428 -271 -450 l-22
-41 639 -383 c351 -211 639 -387 639 -390 0 -5 -657 -404 -931 -566 -29 -17
-193 -116 -213 -128 -11 -7 -46 -28 -77 -47 l-58 -36 245 -404 c134 -223 248
-412 252 -420 4 -8 71 -122 150 -252 l143 -237 52 31 c29 17 64 38 79 47 15 9
110 65 210 126 101 60 195 116 209 125 24 14 298 180 377 228 20 12 44 25 52
29 8 4 17 9 20 13 8 9 195 119 210 122 10 2 13 -124 13 -684 0 -494 3 -688 11
-689 6 0 351 -1 766 -1 l755 -1 1 689 c1 550 4 688 14 686 10 -2 1106 -657
1186 -709 24 -16 -15 -78 506 792 119 198 237 393 262 434 25 41 45 76 43 77
-3 3 -682 411 -722 434 -16 9 -113 67 -214 129 -101 61 -186 111 -189 111 -3
0 -13 6 -21 14 -9 8 -41 28 -71 44 -30 17 -56 34 -57 39 -2 5 196 129 439 275
244 147 484 292 533 322 50 31 97 59 105 64 8 4 56 31 107 61 78 46 90 57 82
72 -5 10 -9 19 -9 21 0 2 132 3 292 3 l293 0 -3 545 c-2 300 -4 734 -5 964
l-2 420 168 0 c92 0 167 1 167 2 0 1 -39 82 -86 180 -47 99 -101 211 -119 249
-29 64 -139 294 -312 655 -35 74 -90 188 -120 253 -50 103 -73 138 -73 108 0
-9 -30 -75 -138 -302 -23 -48 -59 -124 -80 -170 -89 -193 -175 -372 -322 -665
l-155 -311 145 0 c80 -1 156 -1 170 -2 l25 -1 3 -842 3 -843 -280 465 c-154
256 -294 489 -311 518 -33 58 -34 58 -102 10 -16 -11 -29 -18 -29 -16 -1 2 -2
162 -3 356 -2 314 -1 352 13 353 9 1 79 2 156 3 77 2 145 3 151 4 6 1 -13 50
-41 110 -29 59 -81 166 -115 237 -145 303 -171 357 -237 495 -159 331 -185
385 -238 495 -30 63 -57 115 -60 115 -3 0 -40 -71 -82 -157z"/>
</g>
</svg>
